/* XPM */
static char *en[] = {
/* columns rows colors chars-per-pixel */
"20 10 57 1 ",
"  c #00217B",
". c #00237C",
"X c #01267F",
"o c #D0172E",
"O c #D42C40",
"+ c #D52F43",
"@ c #D53145",
"# c #D83145",
"$ c #D93245",
"% c #E06A78",
"& c #002680",
"* c #143587",
"= c #173889",
"- c #15388A",
"; c #5C5690",
": c #5E5992",
"> c #5F5F97",
", c #655A91",
"< c #6A5E93",
"1 c #637CB2",
"2 c #657EB4",
"3 c #B16482",
"4 c #B16583",
"5 c #B26784",
"6 c #B46784",
"7 c #E27B88",
"8 c #E37B88",
"9 c #E47D89",
"0 c #6680B5",
"q c #7289BA",
"w c #9B92B6",
"e c #9C94B7",
"r c #9D94B7",
"t c #9F95B7",
"y c #ADA2BF",
"u c #EC9EA7",
"i c #F0A7AE",
"p c #ECAFB7",
"a c #E5B4BF",
"s c #EFB6BE",
"d c #EFB7BE",
"f c #F3B1B7",
"g c #B4A7C2",
"h c #B4A8C3",
"j c #EFBAC2",
"k c #ECBFC8",
"l c #C4C4D8",
"z c #C5C4D8",
"x c #C7C8DB",
"c c #C6C8DC",
"v c #C8C8DB",
"b c #ECC3CB",
"n c #F8CFD3",
"m c #F8D8DC",
"M c #DDD8E4",
"N c #EDDBE2",
"B c #F6E2E6",
/* pixels */
"%fMq- .Xt$$tX X=<%8b",
",48sl1*Xt$$eX*;38sl0",
"X-:68jl2y@$y,48sx2-&",
"eeehjunBbOOkaimNgwet",
"$$$#@@@+Ooo+@@++$$$$",
"$$$$++@@OooO@@@@$@$$",
"eetgNmipkO+bBnuagtet",
"X-2vs86>y#$y2vj85:-&",
"2zs84;*Xr#$tX*2zs84,",
"b8%<=  Xt#$tX  =qMf%"
};
