/* XPM */
static char *no[] = {
/* columns rows colors chars-per-pixel */
"20 15 31 1 ",
"  c #002466",
". c #002767",
"X c #002868",
"o c #042B6A",
"O c #072E6D",
"+ c #0A306E",
"@ c #EF2527",
"# c #EF2729",
"$ c #EF292B",
"% c #EF2B2D",
"& c #F55051",
"* c #F55354",
"= c #F97A7A",
"- c #335386",
"; c #39588A",
": c #617DA4",
"> c #7288AC",
", c #879AB8",
"< c #879BB9",
"1 c #899CBA",
"2 c #F98484",
"3 c #F98686",
"4 c #FE9494",
"5 c #F89C9D",
"6 c #F89E9F",
"7 c #96A5C0",
"8 c #C2BBCA",
"9 c #C2BCCB",
"0 c #C2C2D1",
"q c #FCC2C2",
"w c #FDC7C7",
/* pixels */
"%%%%%5:+8*$%%%%%%%%%",
"%%%%%5:+9*$%%%%%%%%%",
"%%%%$5:O9*$%%%%%%%%%",
"%%%%$5:O9*$%%%%%%%%%",
"####@5:O8&@$####$$##",
"=====q:O04==========",
"777777;o>77777777777",
"       X           X",
",1,,<<-X>,,,,,,<,,,<",
"22222w:O052222222222",
"$$$$#5:O8&@##$%%##$$",
"%%%%%5:O8*$%%%%%%%%%",
"%%%%$5:O9*$%%%%%%%%%",
"%%%%%5:O9&$%%%%%%%%%",
"%%%%%5:O9*$%%%%%%%%%"
};
